<?xml version="1.0" encoding="UTF-8" standalone="no"?>
<!-- Created with Inkscape (http://www.inkscape.org/) -->

<svg
   xmlns:dc="http://purl.org/dc/elements/1.1/"
   xmlns:cc="http://creativecommons.org/ns#"
   xmlns:rdf="http://www.w3.org/1999/02/22-rdf-syntax-ns#"
   xmlns:svg="http://www.w3.org/2000/svg"
   xmlns="http://www.w3.org/2000/svg"
   xmlns:sodipodi="http://sodipodi.sourceforge.net/DTD/sodipodi-0.dtd"
   xmlns:inkscape="http://www.inkscape.org/namespaces/inkscape"
   width="250"
   height="204.5919"
   viewBox="0 0 66.145833 54.131608"
   id="svg15841"
   version="1.1"
   inkscape:version="0.91+devel+osxmenu r12859"
   sodipodi:docname="meeting.svg">
  <defs
     id="defs15843" />
  <sodipodi:namedview
     id="base"
     pagecolor="#ffffff"
     bordercolor="#666666"
     borderopacity="1.0"
     inkscape:pageopacity="0.0"
     inkscape:pageshadow="2"
     inkscape:zoom="0.35"
     inkscape:cx="153.57142"
     inkscape:cy="-189.13262"
     inkscape:document-units="mm"
     inkscape:current-layer="layer1"
     showgrid="false"
     fit-margin-top="2"
     fit-margin-left="2"
     fit-margin-right="2"
     fit-margin-bottom="2"
     inkscape:window-width="960"
     inkscape:window-height="600"
     inkscape:window-x="0"
     inkscape:window-y="23"
     inkscape:window-maximized="0" />
  <metadata
     id="metadata15846">
    <rdf:RDF>
      <cc:Work
         rdf:about="">
        <dc:format>image/svg+xml</dc:format>
        <dc:type
           rdf:resource="http://purl.org/dc/dcmitype/StillImage" />
        <dc:title></dc:title>
      </cc:Work>
    </rdf:RDF>
  </metadata>
  <g
     inkscape:label="Capa 1"
     inkscape:groupmode="layer"
     id="layer1"
     transform="translate(-65.200898,-44.660388)">
    <path
       inkscape:export-ydpi="90"
       inkscape:export-xdpi="90"
       inkscape:export-filename="/Volumes/Depot/lloc web/img/logo.png"
       id="path13840"
       d="m 86.075397,45.189555 c -7.69522,0 -13.92941,6.241574 -13.92941,13.936795 0,7.695222 6.23419,13.92944 13.92941,13.92944 3.357197,0 6.44126,-1.189858 8.846799,-3.167459 l 5.119474,1.878383 -2.408739,-4.854311 c 1.502357,-2.22377 2.379269,-4.900348 2.379269,-7.786053 2e-5,-7.695221 -6.241577,-13.936795 -13.936803,-13.936795 z M 105.7799,73.659807 c -4.11882,0 -7.461883,3.111527 -7.461883,6.946319 0,3.834765 3.343063,6.938909 7.461883,6.938909 4.11888,0 7.45459,-3.104144 7.45459,-6.938909 0,-3.834792 -3.33571,-6.946319 -7.45459,-6.946319 z m -33.773853,5.826655 c -2.5777,0 -4.67018,1.94609 -4.67018,4.346019 0,2.39993 2.09248,4.338664 4.67018,4.338664 2.57765,0 4.67014,-1.938734 4.67014,-4.338664 2e-5,-2.399929 -2.09249,-4.346019 -4.67014,-4.346019 z m 15.01222,0 c -2.57767,0 -4.67013,1.94609 -4.67013,4.346019 0,2.39993 2.09246,4.338664 4.67013,4.338664 2.577681,0 4.662809,-1.938734 4.662809,-4.338664 0,-2.399929 -2.085128,-4.346019 -4.662809,-4.346019 z m 37.523293,0 c -2.57768,0 -4.67016,1.94609 -4.67016,4.346019 0,2.39993 2.09248,4.338664 4.67016,4.338664 2.5777,0 4.66278,-1.938734 4.66278,-4.338664 0,-2.399929 -2.08508,-4.346019 -4.66278,-4.346019 z m -23.64542,9.008798 c -2.849427,0 -5.148947,2.292191 -5.148947,5.141595 l 0,4.625975 20.058067,0 0,-4.625975 c 0,-2.849404 -2.29212,-5.141595 -5.14155,-5.141595 l -9.76757,0 z m -31.947083,0.920803 c -1.78324,0 -3.219,1.435788 -3.219,3.219 l 0,2.894913 12.55196,0 0,-2.894913 c 0,-1.783212 -1.43581,-3.219026 -3.21902,-3.219 l -6.11394,0 z m 15.01227,0 c -1.78324,0 -3.21903,1.435788 -3.21903,3.219 l 0,2.894913 12.551944,0 0,-2.894913 c 0,-1.783212 -1.435762,-3.219026 -3.218974,-3.219 l -6.11394,0 z m 37.523263,0 c -1.78321,0 -3.219,1.435788 -3.219,3.219 l 0,2.894913 12.55197,0 0,-2.894913 c 0,-1.783212 -1.43582,-3.219026 -3.21903,-3.219 l -6.11394,0 z"
       style="fill:#333333;fill-opacity:1;stroke:none"
       inkscape:connector-curvature="0" />
  </g>
</svg>
